<?xml version="1.0" encoding="UTF-8" standalone="no"?>
<!DOCTYPE svg PUBLIC "-//W3C//DTD SVG 1.1//EN"
 "http://www.w3.org/Graphics/SVG/1.1/DTD/svg11.dtd">
<!-- Generated by graphviz version 2.46.1 (20210213.1702)
 -->
<!-- Title: g Pages: 1 -->
<svg width="6666pt" height="539pt"
 viewBox="0.00 0.00 6665.50 539.00" xmlns="http://www.w3.org/2000/svg" xmlns:xlink="http://www.w3.org/1999/xlink">
<g id="graph0" class="graph" transform="scale(1 1) rotate(0) translate(4 535)">
<title>g</title>
<polygon fill="white" stroke="transparent" points="-4,4 -4,-535 6661.5,-535 6661.5,4 -4,4"/>
<!-- nodo15 -->
<g id="node1" class="node">
<title>nodo15</title>
<polygon fill="#298eb9" stroke="black" points="4672.5,-531 4232.5,-531 4232.5,-478 4672.5,-478 4672.5,-531"/>
<text text-anchor="middle" x="4452.5" y="-515.8" font-family="Times New Roman,serif" font-size="14.00">9df28eb53ae6813fe06ef5da3fe9d3ff810ff71ea1a451e49500d17aec66739b</text>
<text text-anchor="middle" x="4452.5" y="-500.8" font-family="Times New Roman,serif" font-size="14.00">62cfa62f49fc5da600bb09626289731c6a0573c21e01e540b7e292d58e2c675e</text>
<text text-anchor="middle" x="4452.5" y="-485.8" font-family="Times New Roman,serif" font-size="14.00">5ab45f76cf6d9baf1dfc7d39bfc3beb5ed963cdc633449fbb85a2e6224961b8f</text>
</g>
<!-- nodo7 -->
<g id="node2" class="node">
<title>nodo7</title>
<polygon fill="#298eb9" stroke="black" points="3733.5,-442 3295.5,-442 3295.5,-389 3733.5,-389 3733.5,-442"/>
<text text-anchor="middle" x="3514.5" y="-426.8" font-family="Times New Roman,serif" font-size="14.00">5ab45f76cf6d9baf1dfc7d39bfc3beb5ed963cdc633449fbb85a2e6224961b8f</text>
<text text-anchor="middle" x="3514.5" y="-411.8" font-family="Times New Roman,serif" font-size="14.00">87046dcf1380ba885db024ff0d0aaf37d58eeec77ed2d22b9e60ccabf76afe79</text>
<text text-anchor="middle" x="3514.5" y="-396.8" font-family="Times New Roman,serif" font-size="14.00">c79d9124a6fb2cef82e7ee4dd1ef7fa92a4a79bc950e009fb01cca311fc6ef8b</text>
</g>
<!-- nodo15&#45;&gt;nodo7 -->
<g id="edge29" class="edge">
<title>nodo15&#45;&gt;nodo7</title>
<path fill="none" stroke="black" d="M4232.28,-483.07C4085.39,-469.45 3892.66,-451.57 3743.9,-437.78"/>
<polygon fill="black" stroke="black" points="3744,-434.27 3733.72,-436.83 3743.35,-441.24 3744,-434.27"/>
</g>
<!-- nodo23 -->
<g id="node17" class="node">
<title>nodo23</title>
<polygon fill="#298eb9" stroke="black" points="5512.5,-442 5068.5,-442 5068.5,-389 5512.5,-389 5512.5,-442"/>
<text text-anchor="middle" x="5290.5" y="-426.8" font-family="Times New Roman,serif" font-size="14.00">62cfa62f49fc5da600bb09626289731c6a0573c21e01e540b7e292d58e2c675e</text>
<text text-anchor="middle" x="5290.5" y="-411.8" font-family="Times New Roman,serif" font-size="14.00">3b7546ed79e3e5a7907381b093c5a182cbf364c5dd0443dfa956c8cca271cc33</text>
<text text-anchor="middle" x="5290.5" y="-396.8" font-family="Times New Roman,serif" font-size="14.00">3b7546ed79e3e5a7907381b093c5a182cbf364c5dd0443dfa956c8cca271cc33</text>
</g>
<!-- nodo15&#45;&gt;nodo23 -->
<g id="edge30" class="edge">
<title>nodo15&#45;&gt;nodo23</title>
<path fill="none" stroke="black" d="M4672.67,-480.64C4791.3,-468.33 4937.6,-453.14 5058.06,-440.63"/>
<polygon fill="black" stroke="black" points="5058.57,-444.1 5068.16,-439.58 5057.85,-437.13 5058.57,-444.1"/>
</g>
<!-- nodo3 -->
<g id="node3" class="node">
<title>nodo3</title>
<polygon fill="#298eb9" stroke="black" points="2016,-353 1575,-353 1575,-300 2016,-300 2016,-353"/>
<text text-anchor="middle" x="1795.5" y="-337.8" font-family="Times New Roman,serif" font-size="14.00">c79d9124a6fb2cef82e7ee4dd1ef7fa92a4a79bc950e009fb01cca311fc6ef8b</text>
<text text-anchor="middle" x="1795.5" y="-322.8" font-family="Times New Roman,serif" font-size="14.00">f2ef090672ffbc940425900e4599902a7d80f093d94563c5b19d8d193ef8f5b8</text>
<text text-anchor="middle" x="1795.5" y="-307.8" font-family="Times New Roman,serif" font-size="14.00">d9b6d424e36533bd29a478c1fe7b5324a5d77ce5ad3f3e34f5f3a10224ccb7b7</text>
</g>
<!-- nodo7&#45;&gt;nodo3 -->
<g id="edge13" class="edge">
<title>nodo7&#45;&gt;nodo3</title>
<path fill="none" stroke="black" d="M3295.48,-403.42C2969.43,-386.91 2359.21,-356.03 2026.41,-339.19"/>
<polygon fill="black" stroke="black" points="2026.32,-335.68 2016.15,-338.67 2025.96,-342.67 2026.32,-335.68"/>
</g>
<!-- nodo11 -->
<g id="node10" class="node">
<title>nodo11</title>
<polygon fill="#298eb9" stroke="black" points="3732.5,-353 3296.5,-353 3296.5,-300 3732.5,-300 3732.5,-353"/>
<text text-anchor="middle" x="3514.5" y="-337.8" font-family="Times New Roman,serif" font-size="14.00">87046dcf1380ba885db024ff0d0aaf37d58eeec77ed2d22b9e60ccabf76afe79</text>
<text text-anchor="middle" x="3514.5" y="-322.8" font-family="Times New Roman,serif" font-size="14.00">81b0d7f2eb874418344329bd9f0c7b5f51e3136fdbfa7ad0dfc95efedae3c39d</text>
<text text-anchor="middle" x="3514.5" y="-307.8" font-family="Times New Roman,serif" font-size="14.00">44e15b7d3c3590f837614ac5d5a9ecdfa65aad732c92573137986fcf8a1981ef</text>
</g>
<!-- nodo7&#45;&gt;nodo11 -->
<g id="edge14" class="edge">
<title>nodo7&#45;&gt;nodo11</title>
<path fill="none" stroke="black" d="M3514.5,-388.87C3514.5,-380.89 3514.5,-371.93 3514.5,-363.38"/>
<polygon fill="black" stroke="black" points="3518,-363.25 3514.5,-353.25 3511,-363.25 3518,-363.25"/>
</g>
<!-- nodo1 -->
<g id="node4" class="node">
<title>nodo1</title>
<polygon fill="#298eb9" stroke="black" points="895,-263 452,-263 452,-210 895,-210 895,-263"/>
<text text-anchor="middle" x="673.5" y="-247.8" font-family="Times New Roman,serif" font-size="14.00">d9b6d424e36533bd29a478c1fe7b5324a5d77ce5ad3f3e34f5f3a10224ccb7b7</text>
<text text-anchor="middle" x="673.5" y="-232.8" font-family="Times New Roman,serif" font-size="14.00">54f43390f57464de5f92915230f17ff4ee85e4a02ea581af0a12c2526bb3f2df</text>
<text text-anchor="middle" x="673.5" y="-217.8" font-family="Times New Roman,serif" font-size="14.00">751609eaea30c7953623dae11a41b76201738eaa928389a82cb99c1178be19d1</text>
</g>
<!-- nodo3&#45;&gt;nodo1 -->
<g id="edge5" class="edge">
<title>nodo3&#45;&gt;nodo1</title>
<path fill="none" stroke="black" d="M1574.83,-308.19C1381.59,-293.04 1101.75,-271.09 905.28,-255.68"/>
<polygon fill="black" stroke="black" points="905.35,-252.17 895.11,-254.88 904.81,-259.15 905.35,-252.17"/>
</g>
<!-- nodo5 -->
<g id="node7" class="node">
<title>nodo5</title>
<polygon fill="#298eb9" stroke="black" points="2016.5,-263 1574.5,-263 1574.5,-210 2016.5,-210 2016.5,-263"/>
<text text-anchor="middle" x="1795.5" y="-247.8" font-family="Times New Roman,serif" font-size="14.00">f2ef090672ffbc940425900e4599902a7d80f093d94563c5b19d8d193ef8f5b8</text>
<text text-anchor="middle" x="1795.5" y="-232.8" font-family="Times New Roman,serif" font-size="14.00">0a834efd495f2b985c5659b4ab674ee03a7d5cb89462df6e5a3bed0821be0999</text>
<text text-anchor="middle" x="1795.5" y="-217.8" font-family="Times New Roman,serif" font-size="14.00">c4a0f12cf908bb0ac0550a085266d21a4c8b2b3350ebad390601fa785c48716c</text>
</g>
<!-- nodo3&#45;&gt;nodo5 -->
<g id="edge6" class="edge">
<title>nodo3&#45;&gt;nodo5</title>
<path fill="none" stroke="black" d="M1795.5,-299.57C1795.5,-291.34 1795.5,-282.08 1795.5,-273.28"/>
<polygon fill="black" stroke="black" points="1799,-273.24 1795.5,-263.24 1792,-273.24 1799,-273.24"/>
</g>
<!-- nodo0 -->
<g id="node5" class="node">
<title>nodo0</title>
<polygon fill="#298eb9" stroke="black" points="443,-173 0,-173 0,0 443,0 443,-173"/>
<text text-anchor="middle" x="221.5" y="-157.8" font-family="Times New Roman,serif" font-size="14.00">751609eaea30c7953623dae11a41b76201738eaa928389a82cb99c1178be19d1</text>
<text text-anchor="middle" x="221.5" y="-142.8" font-family="Times New Roman,serif" font-size="14.00">Amaya, Rolón y Chavarría Asociados </text>
<text text-anchor="middle" x="221.5" y="-127.8" font-family="Times New Roman,serif" font-size="14.00">Amazon Coins </text>
<text text-anchor="middle" x="221.5" y="-112.8" font-family="Times New Roman,serif" font-size="14.00">5 </text>
<text text-anchor="middle" x="221.5" y="-97.8" font-family="Times New Roman,serif" font-size="14.00">s8 </text>
<text text-anchor="middle" x="221.5" y="-82.8" font-family="Times New Roman,serif" font-size="14.00">El smartphone del futuro </text>
<text text-anchor="middle" x="221.5" y="-67.8" font-family="Times New Roman,serif" font-size="14.00">Aranceles</text>
<text text-anchor="middle" x="221.5" y="-52.8" font-family="Times New Roman,serif" font-size="14.00">https://i.blogs.es/7a4489/galaxy&#45;s8&#45;4/450_1000.jpg </text>
<text text-anchor="middle" x="221.5" y="-37.8" font-family="Times New Roman,serif" font-size="14.00">1234</text>
<text text-anchor="middle" x="221.5" y="-22.8" font-family="Times New Roman,serif" font-size="14.00">2500.000000</text>
<text text-anchor="middle" x="221.5" y="-7.8" font-family="Times New Roman,serif" font-size="14.00"> INVENTARIO CARGADO</text>
</g>
<!-- nodo1&#45;&gt;nodo0 -->
<g id="edge1" class="edge">
<title>nodo1&#45;&gt;nodo0</title>
<path fill="none" stroke="black" d="M576.28,-209.97C539.86,-199.97 498.02,-187.94 452.93,-173.43"/>
<polygon fill="black" stroke="black" points="453.85,-170.04 443.25,-170.29 451.69,-176.7 453.85,-170.04"/>
</g>
<!-- nodo2 -->
<g id="node6" class="node">
<title>nodo2</title>
<polygon fill="#298eb9" stroke="black" points="886,-173 461,-173 461,0 886,0 886,-173"/>
<text text-anchor="middle" x="673.5" y="-157.8" font-family="Times New Roman,serif" font-size="14.00">54f43390f57464de5f92915230f17ff4ee85e4a02ea581af0a12c2526bb3f2df</text>
<text text-anchor="middle" x="673.5" y="-142.8" font-family="Times New Roman,serif" font-size="14.00">Amaya, Rolón y Chavarría Asociados </text>
<text text-anchor="middle" x="673.5" y="-127.8" font-family="Times New Roman,serif" font-size="14.00">Amazon Coins </text>
<text text-anchor="middle" x="673.5" y="-112.8" font-family="Times New Roman,serif" font-size="14.00">5 </text>
<text text-anchor="middle" x="673.5" y="-97.8" font-family="Times New Roman,serif" font-size="14.00">s9 </text>
<text text-anchor="middle" x="673.5" y="-82.8" font-family="Times New Roman,serif" font-size="14.00">El smartphone del futuro mejorado </text>
<text text-anchor="middle" x="673.5" y="-67.8" font-family="Times New Roman,serif" font-size="14.00">Reparaciones</text>
<text text-anchor="middle" x="673.5" y="-52.8" font-family="Times New Roman,serif" font-size="14.00">https://static.kemikcdn.com/2019/01/griss.jpg </text>
<text text-anchor="middle" x="673.5" y="-37.8" font-family="Times New Roman,serif" font-size="14.00">1233</text>
<text text-anchor="middle" x="673.5" y="-22.8" font-family="Times New Roman,serif" font-size="14.00">5500.000000</text>
<text text-anchor="middle" x="673.5" y="-7.8" font-family="Times New Roman,serif" font-size="14.00"> INVENTARIO CARGADO</text>
</g>
<!-- nodo1&#45;&gt;nodo2 -->
<g id="edge2" class="edge">
<title>nodo1&#45;&gt;nodo2</title>
<path fill="none" stroke="black" d="M673.5,-209.72C673.5,-201.91 673.5,-192.84 673.5,-183.23"/>
<polygon fill="black" stroke="black" points="677,-183.05 673.5,-173.05 670,-183.05 677,-183.05"/>
</g>
<!-- nodo4 -->
<g id="node8" class="node">
<title>nodo4</title>
<polygon fill="#298eb9" stroke="black" points="1932.5,-173 904.5,-173 904.5,0 1932.5,0 1932.5,-173"/>
<text text-anchor="middle" x="1418.5" y="-157.8" font-family="Times New Roman,serif" font-size="14.00">c4a0f12cf908bb0ac0550a085266d21a4c8b2b3350ebad390601fa785c48716c</text>
<text text-anchor="middle" x="1418.5" y="-142.8" font-family="Times New Roman,serif" font-size="14.00">Amaya, Rolón y Chavarría Asociados </text>
<text text-anchor="middle" x="1418.5" y="-127.8" font-family="Times New Roman,serif" font-size="14.00">Sensores </text>
<text text-anchor="middle" x="1418.5" y="-112.8" font-family="Times New Roman,serif" font-size="14.00">3 </text>
<text text-anchor="middle" x="1418.5" y="-97.8" font-family="Times New Roman,serif" font-size="14.00">P40 Pro </text>
<text text-anchor="middle" x="1418.5" y="-82.8" font-family="Times New Roman,serif" font-size="14.00">Sobresale en todas Sus areas </text>
<text text-anchor="middle" x="1418.5" y="-67.8" font-family="Times New Roman,serif" font-size="14.00">Textiles</text>
<text text-anchor="middle" x="1418.5" y="-52.8" font-family="Times New Roman,serif" font-size="14.00">https://cdn.computerhoy.com/sites/navi.axelspringer.es/public/styles/1200/public/media/image/2020/01/estos&#45;seran&#45;colores&#45;camaras&#45;huawei&#45;p40&#45;p40&#45;pro&#45;1846245.jpg?itok=SE&#45;h&#45;ICj </text>
<text text-anchor="middle" x="1418.5" y="-37.8" font-family="Times New Roman,serif" font-size="14.00">1222</text>
<text text-anchor="middle" x="1418.5" y="-22.8" font-family="Times New Roman,serif" font-size="14.00">5500.000000</text>
<text text-anchor="middle" x="1418.5" y="-7.8" font-family="Times New Roman,serif" font-size="14.00"> INVENTARIO CARGADO</text>
</g>
<!-- nodo5&#45;&gt;nodo4 -->
<g id="edge3" class="edge">
<title>nodo5&#45;&gt;nodo4</title>
<path fill="none" stroke="black" d="M1730.26,-209.89C1705.91,-200.33 1676.67,-188.85 1645.99,-176.81"/>
<polygon fill="black" stroke="black" points="1647.02,-173.45 1636.43,-173.05 1644.46,-179.97 1647.02,-173.45"/>
</g>
<!-- nodo6 -->
<g id="node9" class="node">
<title>nodo6</title>
<polygon fill="#298eb9" stroke="black" points="2392.5,-173 1950.5,-173 1950.5,0 2392.5,0 2392.5,-173"/>
<text text-anchor="middle" x="2171.5" y="-157.8" font-family="Times New Roman,serif" font-size="14.00">0a834efd495f2b985c5659b4ab674ee03a7d5cb89462df6e5a3bed0821be0999</text>
<text text-anchor="middle" x="2171.5" y="-142.8" font-family="Times New Roman,serif" font-size="14.00">Amaya, Rolón y Chavarría Asociados </text>
<text text-anchor="middle" x="2171.5" y="-127.8" font-family="Times New Roman,serif" font-size="14.00">Sensores </text>
<text text-anchor="middle" x="2171.5" y="-112.8" font-family="Times New Roman,serif" font-size="14.00">3 </text>
<text text-anchor="middle" x="2171.5" y="-97.8" font-family="Times New Roman,serif" font-size="14.00">Mate 40 Pro </text>
<text text-anchor="middle" x="2171.5" y="-82.8" font-family="Times New Roman,serif" font-size="14.00">Son ahora mas eficientes energicamente </text>
<text text-anchor="middle" x="2171.5" y="-67.8" font-family="Times New Roman,serif" font-size="14.00">Textiles</text>
<text text-anchor="middle" x="2171.5" y="-52.8" font-family="Times New Roman,serif" font-size="14.00">https://files.gsmchoice.com/phones/lenovo&#45;p90&#45;pro/lenovo&#45;p90&#45;pro&#45;17.jpg </text>
<text text-anchor="middle" x="2171.5" y="-37.8" font-family="Times New Roman,serif" font-size="14.00">1232</text>
<text text-anchor="middle" x="2171.5" y="-22.8" font-family="Times New Roman,serif" font-size="14.00">7500.000000</text>
<text text-anchor="middle" x="2171.5" y="-7.8" font-family="Times New Roman,serif" font-size="14.00"> INVENTARIO CARGADO</text>
</g>
<!-- nodo5&#45;&gt;nodo6 -->
<g id="edge4" class="edge">
<title>nodo5&#45;&gt;nodo6</title>
<path fill="none" stroke="black" d="M1860.56,-209.89C1884.85,-200.33 1914.01,-188.85 1944.61,-176.81"/>
<polygon fill="black" stroke="black" points="1946.13,-179.97 1954.15,-173.05 1943.56,-173.46 1946.13,-179.97"/>
</g>
<!-- nodo9 -->
<g id="node11" class="node">
<title>nodo9</title>
<polygon fill="#298eb9" stroke="black" points="3403.5,-263 2969.5,-263 2969.5,-210 3403.5,-210 3403.5,-263"/>
<text text-anchor="middle" x="3186.5" y="-247.8" font-family="Times New Roman,serif" font-size="14.00">44e15b7d3c3590f837614ac5d5a9ecdfa65aad732c92573137986fcf8a1981ef</text>
<text text-anchor="middle" x="3186.5" y="-232.8" font-family="Times New Roman,serif" font-size="14.00">0e8ffd8f7e6ab95f9937e1aa6719b0aac4aa8321152e3ba5f87ab8f1cbb04c49</text>
<text text-anchor="middle" x="3186.5" y="-217.8" font-family="Times New Roman,serif" font-size="14.00">2b98724ff5d6e8eccb97fffb66fa90254e5084b1557661ae76e351ca242331c8</text>
</g>
<!-- nodo11&#45;&gt;nodo9 -->
<g id="edge11" class="edge">
<title>nodo11&#45;&gt;nodo9</title>
<path fill="none" stroke="black" d="M3419.19,-299.93C3379.18,-289.19 3332.51,-276.67 3291.51,-265.67"/>
<polygon fill="black" stroke="black" points="3292.33,-262.27 3281.77,-263.06 3290.52,-269.03 3292.33,-262.27"/>
</g>
<!-- nodo13 -->
<g id="node14" class="node">
<title>nodo13</title>
<polygon fill="#298eb9" stroke="black" points="4063.5,-263 3623.5,-263 3623.5,-210 4063.5,-210 4063.5,-263"/>
<text text-anchor="middle" x="3843.5" y="-247.8" font-family="Times New Roman,serif" font-size="14.00">81b0d7f2eb874418344329bd9f0c7b5f51e3136fdbfa7ad0dfc95efedae3c39d</text>
<text text-anchor="middle" x="3843.5" y="-232.8" font-family="Times New Roman,serif" font-size="14.00">eb20dbf7d0c8b21c58d6081a686f3f0d6bd2470a4a25fcc6f3813e2eeb3c961b</text>
<text text-anchor="middle" x="3843.5" y="-217.8" font-family="Times New Roman,serif" font-size="14.00">c145a6ff3e6cdad466ce62ff73950ce001f2f81591b5fb58733b771633785c76</text>
</g>
<!-- nodo11&#45;&gt;nodo13 -->
<g id="edge12" class="edge">
<title>nodo11&#45;&gt;nodo13</title>
<path fill="none" stroke="black" d="M3610.1,-299.93C3650.24,-289.19 3697.05,-276.67 3738.17,-265.67"/>
<polygon fill="black" stroke="black" points="3739.19,-269.02 3747.94,-263.06 3737.38,-262.26 3739.19,-269.02"/>
</g>
<!-- nodo8 -->
<g id="node12" class="node">
<title>nodo8</title>
<polygon fill="#298eb9" stroke="black" points="2896.5,-173 2410.5,-173 2410.5,0 2896.5,0 2896.5,-173"/>
<text text-anchor="middle" x="2653.5" y="-157.8" font-family="Times New Roman,serif" font-size="14.00">2b98724ff5d6e8eccb97fffb66fa90254e5084b1557661ae76e351ca242331c8</text>
<text text-anchor="middle" x="2653.5" y="-142.8" font-family="Times New Roman,serif" font-size="14.00">Aguayo Cepeda S.A. </text>
<text text-anchor="middle" x="2653.5" y="-127.8" font-family="Times New Roman,serif" font-size="14.00">Amazon Coins </text>
<text text-anchor="middle" x="2653.5" y="-112.8" font-family="Times New Roman,serif" font-size="14.00">4 </text>
<text text-anchor="middle" x="2653.5" y="-97.8" font-family="Times New Roman,serif" font-size="14.00">Razer Huntsman mini </text>
<text text-anchor="middle" x="2653.5" y="-82.8" font-family="Times New Roman,serif" font-size="14.00">Teclado OptoMecanico con switches purple </text>
<text text-anchor="middle" x="2653.5" y="-67.8" font-family="Times New Roman,serif" font-size="14.00">Aranceles</text>
<text text-anchor="middle" x="2653.5" y="-52.8" font-family="Times New Roman,serif" font-size="14.00">https://techaeris.com/wp&#45;content/uploads/2020/07/Razer&#45;Huntsman&#45;Mini&#45;review.jpg </text>
<text text-anchor="middle" x="2653.5" y="-37.8" font-family="Times New Roman,serif" font-size="14.00">4222</text>
<text text-anchor="middle" x="2653.5" y="-22.8" font-family="Times New Roman,serif" font-size="14.00">810.000000</text>
<text text-anchor="middle" x="2653.5" y="-7.8" font-family="Times New Roman,serif" font-size="14.00"> INVENTARIO CARGADO</text>
</g>
<!-- nodo9&#45;&gt;nodo8 -->
<g id="edge7" class="edge">
<title>nodo9&#45;&gt;nodo8</title>
<path fill="none" stroke="black" d="M3057.78,-209.93C3012.43,-200.17 2961.02,-188.25 2906.61,-173.26"/>
<polygon fill="black" stroke="black" points="2907.35,-169.84 2896.78,-170.53 2905.48,-176.58 2907.35,-169.84"/>
</g>
<!-- nodo10 -->
<g id="node13" class="node">
<title>nodo10</title>
<polygon fill="#298eb9" stroke="black" points="3458,-173 2915,-173 2915,0 3458,0 3458,-173"/>
<text text-anchor="middle" x="3186.5" y="-157.8" font-family="Times New Roman,serif" font-size="14.00">0e8ffd8f7e6ab95f9937e1aa6719b0aac4aa8321152e3ba5f87ab8f1cbb04c49</text>
<text text-anchor="middle" x="3186.5" y="-142.8" font-family="Times New Roman,serif" font-size="14.00">Aguayo Cepeda S.A. </text>
<text text-anchor="middle" x="3186.5" y="-127.8" font-family="Times New Roman,serif" font-size="14.00">Amazon Coins </text>
<text text-anchor="middle" x="3186.5" y="-112.8" font-family="Times New Roman,serif" font-size="14.00">4 </text>
<text text-anchor="middle" x="3186.5" y="-97.8" font-family="Times New Roman,serif" font-size="14.00">Logitech G G915TKL </text>
<text text-anchor="middle" x="3186.5" y="-82.8" font-family="Times New Roman,serif" font-size="14.00">Juega en la siguiente dimension con los nuevos skitches reducidos para una mejor comodidad </text>
<text text-anchor="middle" x="3186.5" y="-67.8" font-family="Times New Roman,serif" font-size="14.00">Reparaciones</text>
<text text-anchor="middle" x="3186.5" y="-52.8" font-family="Times New Roman,serif" font-size="14.00">https://static.kemikcdn.com/2020/02/G502X1.jpg </text>
<text text-anchor="middle" x="3186.5" y="-37.8" font-family="Times New Roman,serif" font-size="14.00">4232</text>
<text text-anchor="middle" x="3186.5" y="-22.8" font-family="Times New Roman,serif" font-size="14.00">1844.000000</text>
<text text-anchor="middle" x="3186.5" y="-7.8" font-family="Times New Roman,serif" font-size="14.00"> INVENTARIO CARGADO</text>
</g>
<!-- nodo9&#45;&gt;nodo10 -->
<g id="edge8" class="edge">
<title>nodo9&#45;&gt;nodo10</title>
<path fill="none" stroke="black" d="M3186.5,-209.72C3186.5,-201.91 3186.5,-192.84 3186.5,-183.23"/>
<polygon fill="black" stroke="black" points="3190,-183.05 3186.5,-173.05 3183,-183.05 3190,-183.05"/>
</g>
<!-- nodo12 -->
<g id="node15" class="node">
<title>nodo12</title>
<polygon fill="#298eb9" stroke="black" points="4210.5,-173 3476.5,-173 3476.5,0 4210.5,0 4210.5,-173"/>
<text text-anchor="middle" x="3843.5" y="-157.8" font-family="Times New Roman,serif" font-size="14.00">c145a6ff3e6cdad466ce62ff73950ce001f2f81591b5fb58733b771633785c76</text>
<text text-anchor="middle" x="3843.5" y="-142.8" font-family="Times New Roman,serif" font-size="14.00">Aguayo Cepeda S.A. </text>
<text text-anchor="middle" x="3843.5" y="-127.8" font-family="Times New Roman,serif" font-size="14.00">Sensores </text>
<text text-anchor="middle" x="3843.5" y="-112.8" font-family="Times New Roman,serif" font-size="14.00">4 </text>
<text text-anchor="middle" x="3843.5" y="-97.8" font-family="Times New Roman,serif" font-size="14.00">Nike SB </text>
<text text-anchor="middle" x="3843.5" y="-82.8" font-family="Times New Roman,serif" font-size="14.00">Comodos y ergonomicos para una mejor estabilidad de los deportistas </text>
<text text-anchor="middle" x="3843.5" y="-67.8" font-family="Times New Roman,serif" font-size="14.00">Aranceles</text>
<text text-anchor="middle" x="3843.5" y="-52.8" font-family="Times New Roman,serif" font-size="14.00">https://tecvolucion.com/wp&#45;content/uploads/2019/01/Sp19_BB_Nike_Adapt_20181218_NIKE0538_Detail5_rectangle_1600.jpg </text>
<text text-anchor="middle" x="3843.5" y="-37.8" font-family="Times New Roman,serif" font-size="14.00">2234</text>
<text text-anchor="middle" x="3843.5" y="-22.8" font-family="Times New Roman,serif" font-size="14.00">1500.000000</text>
<text text-anchor="middle" x="3843.5" y="-7.8" font-family="Times New Roman,serif" font-size="14.00"> INVENTARIO CARGADO</text>
</g>
<!-- nodo13&#45;&gt;nodo12 -->
<g id="edge9" class="edge">
<title>nodo13&#45;&gt;nodo12</title>
<path fill="none" stroke="black" d="M3843.5,-209.72C3843.5,-201.91 3843.5,-192.84 3843.5,-183.23"/>
<polygon fill="black" stroke="black" points="3847,-183.05 3843.5,-173.05 3840,-183.05 3847,-183.05"/>
</g>
<!-- nodo14 -->
<g id="node16" class="node">
<title>nodo14</title>
<polygon fill="#298eb9" stroke="black" points="5018.5,-173 4228.5,-173 4228.5,0 5018.5,0 5018.5,-173"/>
<text text-anchor="middle" x="4623.5" y="-157.8" font-family="Times New Roman,serif" font-size="14.00">eb20dbf7d0c8b21c58d6081a686f3f0d6bd2470a4a25fcc6f3813e2eeb3c961b</text>
<text text-anchor="middle" x="4623.5" y="-142.8" font-family="Times New Roman,serif" font-size="14.00">Aguayo Cepeda S.A. </text>
<text text-anchor="middle" x="4623.5" y="-127.8" font-family="Times New Roman,serif" font-size="14.00">Sensores </text>
<text text-anchor="middle" x="4623.5" y="-112.8" font-family="Times New Roman,serif" font-size="14.00">4 </text>
<text text-anchor="middle" x="4623.5" y="-97.8" font-family="Times New Roman,serif" font-size="14.00">Air Jordan </text>
<text text-anchor="middle" x="4623.5" y="-82.8" font-family="Times New Roman,serif" font-size="14.00">El mejor estilo y comodidad, tanto para basketbolistas como de uso casual </text>
<text text-anchor="middle" x="4623.5" y="-67.8" font-family="Times New Roman,serif" font-size="14.00">Textiles</text>
<text text-anchor="middle" x="4623.5" y="-52.8" font-family="Times New Roman,serif" font-size="14.00">https://images.mediotiempo.com/TAGSYH6AgmeIR2gKHucF5vK8lDs=/0x530/uploads/media/2020/05/05/air&#45;jordan&#45;vi&#45;fabricados&#45;mj.jpg </text>
<text text-anchor="middle" x="4623.5" y="-37.8" font-family="Times New Roman,serif" font-size="14.00">2313</text>
<text text-anchor="middle" x="4623.5" y="-22.8" font-family="Times New Roman,serif" font-size="14.00">1300.000000</text>
<text text-anchor="middle" x="4623.5" y="-7.8" font-family="Times New Roman,serif" font-size="14.00"> INVENTARIO CARGADO</text>
</g>
<!-- nodo13&#45;&gt;nodo14 -->
<g id="edge10" class="edge">
<title>nodo13&#45;&gt;nodo14</title>
<path fill="none" stroke="black" d="M4006.64,-209.98C4069.98,-199.68 4143.32,-187.26 4218.16,-173.24"/>
<polygon fill="black" stroke="black" points="4219.07,-176.63 4228.25,-171.34 4217.78,-169.75 4219.07,-176.63"/>
</g>
<!-- nodo19 -->
<g id="node18" class="node">
<title>nodo19</title>
<polygon fill="#298eb9" stroke="black" points="5512.5,-353 5068.5,-353 5068.5,-300 5512.5,-300 5512.5,-353"/>
<text text-anchor="middle" x="5290.5" y="-337.8" font-family="Times New Roman,serif" font-size="14.00">3b7546ed79e3e5a7907381b093c5a182cbf364c5dd0443dfa956c8cca271cc33</text>
<text text-anchor="middle" x="5290.5" y="-322.8" font-family="Times New Roman,serif" font-size="14.00">e3b0c44298fc1c149afbf4c8996fb92427ae41e4649b934ca495991b7852b855</text>
<text text-anchor="middle" x="5290.5" y="-307.8" font-family="Times New Roman,serif" font-size="14.00">e3b0c44298fc1c149afbf4c8996fb92427ae41e4649b934ca495991b7852b855</text>
</g>
<!-- nodo23&#45;&gt;nodo19 -->
<g id="edge27" class="edge">
<title>nodo23&#45;&gt;nodo19</title>
<path fill="none" stroke="black" d="M5290.5,-388.87C5290.5,-380.89 5290.5,-371.93 5290.5,-363.38"/>
<polygon fill="black" stroke="black" points="5294,-363.25 5290.5,-353.25 5287,-363.25 5294,-363.25"/>
</g>
<!-- nodo27 -->
<g id="node25" class="node">
<title>nodo27</title>
<polygon fill="#298eb9" stroke="black" points="6201.5,-353 5757.5,-353 5757.5,-300 6201.5,-300 6201.5,-353"/>
<text text-anchor="middle" x="5979.5" y="-337.8" font-family="Times New Roman,serif" font-size="14.00">3b7546ed79e3e5a7907381b093c5a182cbf364c5dd0443dfa956c8cca271cc33</text>
<text text-anchor="middle" x="5979.5" y="-322.8" font-family="Times New Roman,serif" font-size="14.00">e3b0c44298fc1c149afbf4c8996fb92427ae41e4649b934ca495991b7852b855</text>
<text text-anchor="middle" x="5979.5" y="-307.8" font-family="Times New Roman,serif" font-size="14.00">e3b0c44298fc1c149afbf4c8996fb92427ae41e4649b934ca495991b7852b855</text>
</g>
<!-- nodo23&#45;&gt;nodo27 -->
<g id="edge28" class="edge">
<title>nodo23&#45;&gt;nodo27</title>
<path fill="none" stroke="black" d="M5492.57,-388.98C5578.98,-378.07 5679.9,-365.33 5767.38,-354.28"/>
<polygon fill="black" stroke="black" points="5767.95,-357.74 5777.44,-353.01 5767.08,-350.79 5767.95,-357.74"/>
</g>
<!-- nodo17 -->
<g id="node19" class="node">
<title>nodo17</title>
<polygon fill="#298eb9" stroke="black" points="5283.5,-264 4843.5,-264 4843.5,-209 5283.5,-209 5283.5,-264"/>
<text text-anchor="middle" x="5063.5" y="-248.8" font-family="Times New Roman,serif" font-size="14.00">e3b0c44298fc1c149afbf4c8996fb92427ae41e4649b934ca495991b7852b855</text>
</g>
<!-- nodo19&#45;&gt;nodo17 -->
<g id="edge19" class="edge">
<title>nodo19&#45;&gt;nodo17</title>
<path fill="none" stroke="black" d="M5224.54,-299.93C5198.54,-289.85 5168.49,-278.2 5141.43,-267.71"/>
<polygon fill="black" stroke="black" points="5142.58,-264.4 5132,-264.05 5140.05,-270.93 5142.58,-264.4"/>
</g>
<!-- nodo21 -->
<g id="node22" class="node">
<title>nodo21</title>
<polygon fill="#298eb9" stroke="black" points="5741.5,-264 5301.5,-264 5301.5,-209 5741.5,-209 5741.5,-264"/>
<text text-anchor="middle" x="5521.5" y="-248.8" font-family="Times New Roman,serif" font-size="14.00">e3b0c44298fc1c149afbf4c8996fb92427ae41e4649b934ca495991b7852b855</text>
</g>
<!-- nodo19&#45;&gt;nodo21 -->
<g id="edge20" class="edge">
<title>nodo19&#45;&gt;nodo21</title>
<path fill="none" stroke="black" d="M5357.63,-299.93C5384.08,-289.85 5414.66,-278.2 5442.2,-267.71"/>
<polygon fill="black" stroke="black" points="5443.7,-270.88 5451.8,-264.05 5441.21,-264.34 5443.7,-270.88"/>
</g>
<!-- nodo16 -->
<g id="node20" class="node">
<title>nodo16</title>
<polygon fill="#298eb9" stroke="black" points="5090.5,-106.5 5036.5,-106.5 5036.5,-66.5 5090.5,-66.5 5090.5,-106.5"/>
</g>
<!-- nodo17&#45;&gt;nodo16 -->
<g id="edge15" class="edge">
<title>nodo17&#45;&gt;nodo16</title>
<path fill="none" stroke="black" d="M5063.5,-208.7C5063.5,-182.78 5063.5,-143.61 5063.5,-116.86"/>
<polygon fill="black" stroke="black" points="5067,-116.58 5063.5,-106.58 5060,-116.58 5067,-116.58"/>
</g>
<!-- nodo18 -->
<g id="node21" class="node">
<title>nodo18</title>
<polygon fill="#298eb9" stroke="black" points="5162.5,-106.5 5108.5,-106.5 5108.5,-66.5 5162.5,-66.5 5162.5,-106.5"/>
</g>
<!-- nodo17&#45;&gt;nodo18 -->
<g id="edge16" class="edge">
<title>nodo17&#45;&gt;nodo18</title>
<path fill="none" stroke="black" d="M5079.84,-208.83C5086.28,-197.89 5093.55,-185 5099.5,-173 5108.63,-154.6 5117.6,-133.31 5124.3,-116.58"/>
<polygon fill="black" stroke="black" points="5127.74,-117.41 5128.16,-106.82 5121.23,-114.83 5127.74,-117.41"/>
</g>
<!-- nodo20 -->
<g id="node23" class="node">
<title>nodo20</title>
<polygon fill="#298eb9" stroke="black" points="5512.5,-106.5 5458.5,-106.5 5458.5,-66.5 5512.5,-66.5 5512.5,-106.5"/>
</g>
<!-- nodo21&#45;&gt;nodo20 -->
<g id="edge17" class="edge">
<title>nodo21&#45;&gt;nodo20</title>
<path fill="none" stroke="black" d="M5514.98,-208.7C5508.65,-182.67 5499.06,-143.26 5492.55,-116.5"/>
<polygon fill="black" stroke="black" points="5495.9,-115.47 5490.14,-106.58 5489.1,-117.12 5495.9,-115.47"/>
</g>
<!-- nodo22 -->
<g id="node24" class="node">
<title>nodo22</title>
<polygon fill="#298eb9" stroke="black" points="5584.5,-106.5 5530.5,-106.5 5530.5,-66.5 5584.5,-66.5 5584.5,-106.5"/>
</g>
<!-- nodo21&#45;&gt;nodo22 -->
<g id="edge18" class="edge">
<title>nodo21&#45;&gt;nodo22</title>
<path fill="none" stroke="black" d="M5528.02,-208.7C5534.35,-182.67 5543.94,-143.26 5550.45,-116.5"/>
<polygon fill="black" stroke="black" points="5553.9,-117.12 5552.86,-106.58 5547.1,-115.47 5553.9,-117.12"/>
</g>
<!-- nodo25 -->
<g id="node26" class="node">
<title>nodo25</title>
<polygon fill="#298eb9" stroke="black" points="6199.5,-264 5759.5,-264 5759.5,-209 6199.5,-209 6199.5,-264"/>
<text text-anchor="middle" x="5979.5" y="-248.8" font-family="Times New Roman,serif" font-size="14.00">e3b0c44298fc1c149afbf4c8996fb92427ae41e4649b934ca495991b7852b855</text>
</g>
<!-- nodo27&#45;&gt;nodo25 -->
<g id="edge25" class="edge">
<title>nodo27&#45;&gt;nodo25</title>
<path fill="none" stroke="black" d="M5979.5,-299.57C5979.5,-291.64 5979.5,-282.77 5979.5,-274.26"/>
<polygon fill="black" stroke="black" points="5983,-274.16 5979.5,-264.16 5976,-274.16 5983,-274.16"/>
</g>
<!-- nodo29 -->
<g id="node29" class="node">
<title>nodo29</title>
<polygon fill="#298eb9" stroke="black" points="6657.5,-264 6217.5,-264 6217.5,-209 6657.5,-209 6657.5,-264"/>
<text text-anchor="middle" x="6437.5" y="-248.8" font-family="Times New Roman,serif" font-size="14.00">e3b0c44298fc1c149afbf4c8996fb92427ae41e4649b934ca495991b7852b855</text>
</g>
<!-- nodo27&#45;&gt;nodo29 -->
<g id="edge26" class="edge">
<title>nodo27&#45;&gt;nodo29</title>
<path fill="none" stroke="black" d="M6112.28,-299.99C6167.84,-289.31 6232.64,-276.86 6289.7,-265.9"/>
<polygon fill="black" stroke="black" points="6290.37,-269.33 6299.53,-264.01 6289.04,-262.46 6290.37,-269.33"/>
</g>
<!-- nodo24 -->
<g id="node27" class="node">
<title>nodo24</title>
<polygon fill="#298eb9" stroke="black" points="5970.5,-106.5 5916.5,-106.5 5916.5,-66.5 5970.5,-66.5 5970.5,-106.5"/>
</g>
<!-- nodo25&#45;&gt;nodo24 -->
<g id="edge21" class="edge">
<title>nodo25&#45;&gt;nodo24</title>
<path fill="none" stroke="black" d="M5972.98,-208.7C5966.65,-182.67 5957.06,-143.26 5950.55,-116.5"/>
<polygon fill="black" stroke="black" points="5953.9,-115.47 5948.14,-106.58 5947.1,-117.12 5953.9,-115.47"/>
</g>
<!-- nodo26 -->
<g id="node28" class="node">
<title>nodo26</title>
<polygon fill="#298eb9" stroke="black" points="6042.5,-106.5 5988.5,-106.5 5988.5,-66.5 6042.5,-66.5 6042.5,-106.5"/>
</g>
<!-- nodo25&#45;&gt;nodo26 -->
<g id="edge22" class="edge">
<title>nodo25&#45;&gt;nodo26</title>
<path fill="none" stroke="black" d="M5986.02,-208.7C5992.35,-182.67 6001.94,-143.26 6008.45,-116.5"/>
<polygon fill="black" stroke="black" points="6011.9,-117.12 6010.86,-106.58 6005.1,-115.47 6011.9,-117.12"/>
</g>
<!-- nodo28 -->
<g id="node30" class="node">
<title>nodo28</title>
<polygon fill="#298eb9" stroke="black" points="6428.5,-106.5 6374.5,-106.5 6374.5,-66.5 6428.5,-66.5 6428.5,-106.5"/>
</g>
<!-- nodo29&#45;&gt;nodo28 -->
<g id="edge23" class="edge">
<title>nodo29&#45;&gt;nodo28</title>
<path fill="none" stroke="black" d="M6430.98,-208.7C6424.65,-182.67 6415.06,-143.26 6408.55,-116.5"/>
<polygon fill="black" stroke="black" points="6411.9,-115.47 6406.14,-106.58 6405.1,-117.12 6411.9,-115.47"/>
</g>
<!-- nodo30 -->
<g id="node31" class="node">
<title>nodo30</title>
<polygon fill="#298eb9" stroke="black" points="6500.5,-106.5 6446.5,-106.5 6446.5,-66.5 6500.5,-66.5 6500.5,-106.5"/>
</g>
<!-- nodo29&#45;&gt;nodo30 -->
<g id="edge24" class="edge">
<title>nodo29&#45;&gt;nodo30</title>
<path fill="none" stroke="black" d="M6444.02,-208.7C6450.35,-182.67 6459.94,-143.26 6466.45,-116.5"/>
<polygon fill="black" stroke="black" points="6469.9,-117.12 6468.86,-106.58 6463.1,-115.47 6469.9,-117.12"/>
</g>
</g>
</svg>
