<?xml version="1.0" encoding="UTF-8" standalone="no"?>
<!DOCTYPE svg PUBLIC "-//W3C//DTD SVG 1.1//EN"
 "http://www.w3.org/Graphics/SVG/1.1/DTD/svg11.dtd">
<!-- Generated by graphviz version 2.46.1 (20210213.1702)
 -->
<!-- Title: g Pages: 1 -->
<svg width="588pt" height="211pt"
 viewBox="0.00 0.00 588.00 211.00" xmlns="http://www.w3.org/2000/svg" xmlns:xlink="http://www.w3.org/1999/xlink">
<g id="graph0" class="graph" transform="scale(1 1) rotate(0) translate(4 207)">
<title>g</title>
<polygon fill="white" stroke="transparent" points="-4,4 -4,-207 584,-207 584,4 -4,4"/>
<!-- nodo1 -->
<g id="node1" class="node">
<title>nodo1</title>
<polygon fill="#298eb9" stroke="black" points="580,-203 134,-203 134,-149 580,-149 580,-203"/>
<text text-anchor="middle" x="357" y="-187.8" font-family="Times New Roman,serif" font-size="14.00">d942b5a1dc902954780426f471eb729f8baff328b5490cca57006e5a5a7ef03a</text>
<text text-anchor="middle" x="357" y="-156.8" font-family="Times New Roman,serif" font-size="14.00">085c457d0bb0a22ea1b2dcc17ead9dacf2c5219ca6c3c942648503b3341a621a</text>
</g>
<!-- nodo0 -->
<g id="node2" class="node">
<title>nodo0</title>
<polygon fill="#298eb9" stroke="black" points="446,-113 0,-113 0,0 446,0 446,-113"/>
<text text-anchor="middle" x="223" y="-97.8" font-family="Times New Roman,serif" font-size="14.00">085c457d0bb0a22ea1b2dcc17ead9dacf2c5219ca6c3c942648503b3341a621a</text>
<text text-anchor="middle" x="223" y="-82.8" font-family="Times New Roman,serif" font-size="14.00">1234567890101 </text>
<text text-anchor="middle" x="223" y="-67.8" font-family="Times New Roman,serif" font-size="14.00">12343 </text>
<text text-anchor="middle" x="223" y="-52.8" font-family="Times New Roman,serif" font-size="14.00">Admin </text>
<text text-anchor="middle" x="223" y="-37.8" font-family="Times New Roman,serif" font-size="14.00">EDD2021 </text>
<text text-anchor="middle" x="223" y="-22.8" font-family="Times New Roman,serif" font-size="14.00">auxiliar@edd.com</text>
<text text-anchor="middle" x="223" y="-7.8" font-family="Times New Roman,serif" font-size="14.00">USUARIO LOGGEADO</text>
</g>
<!-- nodo1&#45;&gt;nodo0 -->
<g id="edge1" class="edge">
<title>nodo1&#45;&gt;nodo0</title>
<path fill="none" stroke="black" d="M327.26,-148.92C317.33,-140.22 305.8,-130.1 294.1,-119.85"/>
<polygon fill="black" stroke="black" points="296.23,-117.06 286.4,-113.1 291.62,-122.32 296.23,-117.06"/>
</g>
<!-- nodo2 -->
<g id="node3" class="node">
<title>nodo2</title>
<polygon fill="#298eb9" stroke="black" points="518,-76.5 464,-76.5 464,-36.5 518,-36.5 518,-76.5"/>
</g>
<!-- nodo1&#45;&gt;nodo2 -->
<g id="edge2" class="edge">
<title>nodo1&#45;&gt;nodo2</title>
<path fill="none" stroke="black" d="M407.38,-148.85C423.68,-138.96 441.11,-126.73 455,-113 463.11,-104.98 470.34,-94.84 476.16,-85.42"/>
<polygon fill="black" stroke="black" points="479.23,-87.1 481.29,-76.71 473.2,-83.55 479.23,-87.1"/>
</g>
</g>
</svg>
