<?xml version="1.0" encoding="UTF-8" standalone="no"?>
<!DOCTYPE svg PUBLIC "-//W3C//DTD SVG 1.1//EN"
 "http://www.w3.org/Graphics/SVG/1.1/DTD/svg11.dtd">
<!-- Generated by graphviz version 2.46.1 (20210213.1702)
 -->
<!-- Title: g Pages: 1 -->
<svg width="2986pt" height="405pt"
 viewBox="0.00 0.00 2985.50 405.00" xmlns="http://www.w3.org/2000/svg" xmlns:xlink="http://www.w3.org/1999/xlink">
<g id="graph0" class="graph" transform="scale(1 1) rotate(0) translate(4 401)">
<title>g</title>
<polygon fill="white" stroke="transparent" points="-4,4 -4,-401 2981.5,-401 2981.5,4 -4,4"/>
<!-- nodo7 -->
<g id="node1" class="node">
<title>nodo7</title>
<polygon fill="#298eb9" stroke="black" points="2258.5,-397 1816.5,-397 1816.5,-344 2258.5,-344 2258.5,-397"/>
<text text-anchor="middle" x="2037.5" y="-381.8" font-family="Times New Roman,serif" font-size="14.00">4974131a90c7b3891ce15bed8515ee107fcb9164b2a95bac7ee0387c1761af36</text>
<text text-anchor="middle" x="2037.5" y="-366.8" font-family="Times New Roman,serif" font-size="14.00">bde9911683726a3631ba5d0c7e2f65edb07d3235823ecee8b4d34ee58ee146f8</text>
<text text-anchor="middle" x="2037.5" y="-351.8" font-family="Times New Roman,serif" font-size="14.00">6aaa7d5102f6b13971c690c99e3a5a0f55b881ad8eed62236c34144514cb8c86</text>
</g>
<!-- nodo3 -->
<g id="node2" class="node">
<title>nodo3</title>
<polygon fill="#298eb9" stroke="black" points="1743,-308 1298,-308 1298,-255 1743,-255 1743,-308"/>
<text text-anchor="middle" x="1520.5" y="-292.8" font-family="Times New Roman,serif" font-size="14.00">6aaa7d5102f6b13971c690c99e3a5a0f55b881ad8eed62236c34144514cb8c86</text>
<text text-anchor="middle" x="1520.5" y="-277.8" font-family="Times New Roman,serif" font-size="14.00">195df8838ec4153ff6eb3e78a93ddde94059abd2c0724bc6312127407b8436b4</text>
<text text-anchor="middle" x="1520.5" y="-262.8" font-family="Times New Roman,serif" font-size="14.00">f5a9cb8a6650c0b501dd307eeb9633b54b1d8c41f5f19c35d107f30892311fb2</text>
</g>
<!-- nodo7&#45;&gt;nodo3 -->
<g id="edge13" class="edge">
<title>nodo7&#45;&gt;nodo3</title>
<path fill="none" stroke="black" d="M1885.88,-343.98C1821.83,-333.21 1747.15,-320.64 1682.07,-309.69"/>
<polygon fill="black" stroke="black" points="1682.56,-306.22 1672.12,-308.01 1681.4,-313.13 1682.56,-306.22"/>
</g>
<!-- nodo11 -->
<g id="node9" class="node">
<title>nodo11</title>
<polygon fill="#298eb9" stroke="black" points="2517.5,-308 2075.5,-308 2075.5,-255 2517.5,-255 2517.5,-308"/>
<text text-anchor="middle" x="2296.5" y="-292.8" font-family="Times New Roman,serif" font-size="14.00">bde9911683726a3631ba5d0c7e2f65edb07d3235823ecee8b4d34ee58ee146f8</text>
<text text-anchor="middle" x="2296.5" y="-277.8" font-family="Times New Roman,serif" font-size="14.00">e3b0c44298fc1c149afbf4c8996fb92427ae41e4649b934ca495991b7852b855</text>
<text text-anchor="middle" x="2296.5" y="-262.8" font-family="Times New Roman,serif" font-size="14.00">e4d809c603bcf0414680b0c46362cfad23ece5c06f2a3cd476b1a24af16d7c07</text>
</g>
<!-- nodo7&#45;&gt;nodo11 -->
<g id="edge14" class="edge">
<title>nodo7&#45;&gt;nodo11</title>
<path fill="none" stroke="black" d="M2113.46,-343.98C2144.03,-333.72 2179.43,-321.82 2210.91,-311.25"/>
<polygon fill="black" stroke="black" points="2212.18,-314.52 2220.54,-308.01 2209.95,-307.88 2212.18,-314.52"/>
</g>
<!-- nodo1 -->
<g id="node3" class="node">
<title>nodo1</title>
<polygon fill="#298eb9" stroke="black" points="924,-218 473,-218 473,-165 924,-165 924,-218"/>
<text text-anchor="middle" x="698.5" y="-202.8" font-family="Times New Roman,serif" font-size="14.00">f5a9cb8a6650c0b501dd307eeb9633b54b1d8c41f5f19c35d107f30892311fb2</text>
<text text-anchor="middle" x="698.5" y="-187.8" font-family="Times New Roman,serif" font-size="14.00">5ca438ae76c23271ce8840818d6a69f40c6a880d2dd964988542d534a8d2c649</text>
<text text-anchor="middle" x="698.5" y="-172.8" font-family="Times New Roman,serif" font-size="14.00">b3b24d8b991198b3cbc093867b1c721cc66fb58d6de45bed5a525c116323fc85</text>
</g>
<!-- nodo3&#45;&gt;nodo1 -->
<g id="edge5" class="edge">
<title>nodo3&#45;&gt;nodo1</title>
<path fill="none" stroke="black" d="M1297.78,-256.66C1185.29,-244.61 1048.78,-230 934.48,-217.76"/>
<polygon fill="black" stroke="black" points="934.51,-214.25 924.2,-216.66 933.77,-221.21 934.51,-214.25"/>
</g>
<!-- nodo5 -->
<g id="node6" class="node">
<title>nodo5</title>
<polygon fill="#298eb9" stroke="black" points="1743,-218 1298,-218 1298,-165 1743,-165 1743,-218"/>
<text text-anchor="middle" x="1520.5" y="-202.8" font-family="Times New Roman,serif" font-size="14.00">195df8838ec4153ff6eb3e78a93ddde94059abd2c0724bc6312127407b8436b4</text>
<text text-anchor="middle" x="1520.5" y="-187.8" font-family="Times New Roman,serif" font-size="14.00">3d7c79fb409f8419e237188530edc7063854b7d45c8a607af96f7c178b7030be</text>
<text text-anchor="middle" x="1520.5" y="-172.8" font-family="Times New Roman,serif" font-size="14.00">93c44ff213505b4f98a9aecf93cca7aa0ba4d0c91a47f642e7283cb180041346</text>
</g>
<!-- nodo3&#45;&gt;nodo5 -->
<g id="edge6" class="edge">
<title>nodo3&#45;&gt;nodo5</title>
<path fill="none" stroke="black" d="M1520.5,-254.57C1520.5,-246.34 1520.5,-237.08 1520.5,-228.28"/>
<polygon fill="black" stroke="black" points="1524,-228.24 1520.5,-218.24 1517,-228.24 1524,-228.24"/>
</g>
<!-- nodo0 -->
<g id="node4" class="node">
<title>nodo0</title>
<polygon fill="#298eb9" stroke="black" points="451,-128 0,-128 0,0 451,0 451,-128"/>
<text text-anchor="middle" x="225.5" y="-112.8" font-family="Times New Roman,serif" font-size="14.00">b3b24d8b991198b3cbc093867b1c721cc66fb58d6de45bed5a525c116323fc85</text>
<text text-anchor="middle" x="225.5" y="-97.8" font-family="Times New Roman,serif" font-size="14.00">Amaya, Rolón y Chavarría Asociados </text>
<text text-anchor="middle" x="225.5" y="-82.8" font-family="Times New Roman,serif" font-size="14.00">Illum accusantium voluptate voluptatem in corrupti dolorem velit et. </text>
<text text-anchor="middle" x="225.5" y="-67.8" font-family="Times New Roman,serif" font-size="14.00">Amazon Coins </text>
<text text-anchor="middle" x="225.5" y="-52.8" font-family="Times New Roman,serif" font-size="14.00">https://economipedia.com/wp&#45;content/uploads/2015/10/apple&#45;300x300.png </text>
<text text-anchor="middle" x="225.5" y="-37.8" font-family="Times New Roman,serif" font-size="14.00">976191834 </text>
<text text-anchor="middle" x="225.5" y="-22.8" font-family="Times New Roman,serif" font-size="14.00">5</text>
<text text-anchor="middle" x="225.5" y="-7.8" font-family="Times New Roman,serif" font-size="14.00">TIENDA CARGADA</text>
</g>
<!-- nodo1&#45;&gt;nodo0 -->
<g id="edge1" class="edge">
<title>nodo1&#45;&gt;nodo0</title>
<path fill="none" stroke="black" d="M600.91,-164.99C560.38,-154.37 512.62,-141.81 460.94,-128.12"/>
<polygon fill="black" stroke="black" points="461.81,-124.73 451.25,-125.54 460.02,-131.49 461.81,-124.73"/>
</g>
<!-- nodo2 -->
<g id="node5" class="node">
<title>nodo2</title>
<polygon fill="#298eb9" stroke="black" points="927.5,-128 469.5,-128 469.5,0 927.5,0 927.5,-128"/>
<text text-anchor="middle" x="698.5" y="-112.8" font-family="Times New Roman,serif" font-size="14.00">5ca438ae76c23271ce8840818d6a69f40c6a880d2dd964988542d534a8d2c649</text>
<text text-anchor="middle" x="698.5" y="-97.8" font-family="Times New Roman,serif" font-size="14.00">Aguayo Cepeda S.A. </text>
<text text-anchor="middle" x="698.5" y="-82.8" font-family="Times New Roman,serif" font-size="14.00">Numquam ea est error inventore et porro veritatis. </text>
<text text-anchor="middle" x="698.5" y="-67.8" font-family="Times New Roman,serif" font-size="14.00">Amazon Coins </text>
<text text-anchor="middle" x="698.5" y="-52.8" font-family="Times New Roman,serif" font-size="14.00">https://i.pinimg.com/originals/3d/0f/0e/3d0f0e8f600627fde858f6c6e668e999.gif </text>
<text text-anchor="middle" x="698.5" y="-37.8" font-family="Times New Roman,serif" font-size="14.00">949 586 354 </text>
<text text-anchor="middle" x="698.5" y="-22.8" font-family="Times New Roman,serif" font-size="14.00">4</text>
<text text-anchor="middle" x="698.5" y="-7.8" font-family="Times New Roman,serif" font-size="14.00">TIENDA CARGADA</text>
</g>
<!-- nodo1&#45;&gt;nodo2 -->
<g id="edge2" class="edge">
<title>nodo1&#45;&gt;nodo2</title>
<path fill="none" stroke="black" d="M698.5,-164.8C698.5,-156.95 698.5,-147.9 698.5,-138.52"/>
<polygon fill="black" stroke="black" points="702,-138.25 698.5,-128.25 695,-138.25 702,-138.25"/>
</g>
<!-- nodo4 -->
<g id="node7" class="node">
<title>nodo4</title>
<polygon fill="#298eb9" stroke="black" points="1579,-128 946,-128 946,0 1579,0 1579,-128"/>
<text text-anchor="middle" x="1262.5" y="-112.8" font-family="Times New Roman,serif" font-size="14.00">93c44ff213505b4f98a9aecf93cca7aa0ba4d0c91a47f642e7283cb180041346</text>
<text text-anchor="middle" x="1262.5" y="-97.8" font-family="Times New Roman,serif" font-size="14.00">Amaya, Rolón y Chavarría Asociados </text>
<text text-anchor="middle" x="1262.5" y="-82.8" font-family="Times New Roman,serif" font-size="14.00">Enim incidunt beatae enim quisquam harum fuga molestiae at. </text>
<text text-anchor="middle" x="1262.5" y="-67.8" font-family="Times New Roman,serif" font-size="14.00">Sensores </text>
<text text-anchor="middle" x="1262.5" y="-52.8" font-family="Times New Roman,serif" font-size="14.00">https://as.com/meristation/imagenes/2021/01/18/mexico/1610944753_187605_1610981923_noticia_normal.jpg </text>
<text text-anchor="middle" x="1262.5" y="-37.8" font-family="Times New Roman,serif" font-size="14.00">915 133 743 </text>
<text text-anchor="middle" x="1262.5" y="-22.8" font-family="Times New Roman,serif" font-size="14.00">3</text>
<text text-anchor="middle" x="1262.5" y="-7.8" font-family="Times New Roman,serif" font-size="14.00">TIENDA CARGADA</text>
</g>
<!-- nodo5&#45;&gt;nodo4 -->
<g id="edge3" class="edge">
<title>nodo5&#45;&gt;nodo4</title>
<path fill="none" stroke="black" d="M1467.98,-164.95C1448.38,-155.42 1425.1,-144.09 1401.37,-132.55"/>
<polygon fill="black" stroke="black" points="1402.78,-129.35 1392.26,-128.12 1399.72,-135.64 1402.78,-129.35"/>
</g>
<!-- nodo6 -->
<g id="node8" class="node">
<title>nodo6</title>
<polygon fill="#298eb9" stroke="black" points="2048,-128 1597,-128 1597,0 2048,0 2048,-128"/>
<text text-anchor="middle" x="1822.5" y="-112.8" font-family="Times New Roman,serif" font-size="14.00">3d7c79fb409f8419e237188530edc7063854b7d45c8a607af96f7c178b7030be</text>
<text text-anchor="middle" x="1822.5" y="-97.8" font-family="Times New Roman,serif" font-size="14.00">Aguayo Cepeda S.A. </text>
<text text-anchor="middle" x="1822.5" y="-82.8" font-family="Times New Roman,serif" font-size="14.00">Animi similique quas quam consectetur dolorem. </text>
<text text-anchor="middle" x="1822.5" y="-67.8" font-family="Times New Roman,serif" font-size="14.00">Sensores </text>
<text text-anchor="middle" x="1822.5" y="-52.8" font-family="Times New Roman,serif" font-size="14.00">https://graffica.info/wp&#45;content/uploads/2017/01/Kentucky&#45;Fried&#45;Chicken.jpg </text>
<text text-anchor="middle" x="1822.5" y="-37.8" font-family="Times New Roman,serif" font-size="14.00">961.244.645 </text>
<text text-anchor="middle" x="1822.5" y="-22.8" font-family="Times New Roman,serif" font-size="14.00">4</text>
<text text-anchor="middle" x="1822.5" y="-7.8" font-family="Times New Roman,serif" font-size="14.00">TIENDA CARGADA</text>
</g>
<!-- nodo5&#45;&gt;nodo6 -->
<g id="edge4" class="edge">
<title>nodo5&#45;&gt;nodo6</title>
<path fill="none" stroke="black" d="M1581.98,-164.95C1605.22,-155.29 1632.89,-143.79 1661.05,-132.09"/>
<polygon fill="black" stroke="black" points="1662.72,-135.19 1670.61,-128.12 1660.03,-128.73 1662.72,-135.19"/>
</g>
<!-- nodo9 -->
<g id="node10" class="node">
<title>nodo9</title>
<polygon fill="#298eb9" stroke="black" points="2519.5,-218.5 2073.5,-218.5 2073.5,-164.5 2519.5,-164.5 2519.5,-218.5"/>
<text text-anchor="middle" x="2296.5" y="-203.3" font-family="Times New Roman,serif" font-size="14.00">e4d809c603bcf0414680b0c46362cfad23ece5c06f2a3cd476b1a24af16d7c07</text>
<text text-anchor="middle" x="2296.5" y="-172.3" font-family="Times New Roman,serif" font-size="14.00">cb3c0295a443a9a5605d942d9f27e4089041b13846161821e6a2ddd26cb714cf</text>
</g>
<!-- nodo11&#45;&gt;nodo9 -->
<g id="edge11" class="edge">
<title>nodo11&#45;&gt;nodo9</title>
<path fill="none" stroke="black" d="M2296.5,-254.57C2296.5,-246.5 2296.5,-237.44 2296.5,-228.8"/>
<polygon fill="black" stroke="black" points="2300,-228.55 2296.5,-218.55 2293,-228.55 2300,-228.55"/>
</g>
<!-- nodo13 -->
<g id="node13" class="node">
<title>nodo13</title>
<polygon fill="#298eb9" stroke="black" points="2977.5,-219 2537.5,-219 2537.5,-164 2977.5,-164 2977.5,-219"/>
<text text-anchor="middle" x="2757.5" y="-203.8" font-family="Times New Roman,serif" font-size="14.00">e3b0c44298fc1c149afbf4c8996fb92427ae41e4649b934ca495991b7852b855</text>
</g>
<!-- nodo11&#45;&gt;nodo13 -->
<g id="edge12" class="edge">
<title>nodo11&#45;&gt;nodo13</title>
<path fill="none" stroke="black" d="M2430.15,-254.99C2486.07,-244.31 2551.29,-231.86 2608.73,-220.9"/>
<polygon fill="black" stroke="black" points="2609.46,-224.32 2618.62,-219.01 2608.14,-217.45 2609.46,-224.32"/>
</g>
<!-- nodo8 -->
<g id="node11" class="node">
<title>nodo8</title>
<polygon fill="#298eb9" stroke="black" points="2526.5,-128 2066.5,-128 2066.5,0 2526.5,0 2526.5,-128"/>
<text text-anchor="middle" x="2296.5" y="-112.8" font-family="Times New Roman,serif" font-size="14.00">cb3c0295a443a9a5605d942d9f27e4089041b13846161821e6a2ddd26cb714cf</text>
<text text-anchor="middle" x="2296.5" y="-97.8" font-family="Times New Roman,serif" font-size="14.00">Briones Pineda S.A. </text>
<text text-anchor="middle" x="2296.5" y="-82.8" font-family="Times New Roman,serif" font-size="14.00">Minus esse nemo eveniet sapiente iste sapiente repudiandae sapiente. </text>
<text text-anchor="middle" x="2296.5" y="-67.8" font-family="Times New Roman,serif" font-size="14.00">Sensores </text>
<text text-anchor="middle" x="2296.5" y="-52.8" font-family="Times New Roman,serif" font-size="14.00">https://static&#45;cse.canva.com/blob/211898/17&#45;50&#45;logotipos&#45;que&#45;te&#45;inspiraran.jpg </text>
<text text-anchor="middle" x="2296.5" y="-37.8" font-family="Times New Roman,serif" font-size="14.00">918&#45;764&#45;088 </text>
<text text-anchor="middle" x="2296.5" y="-22.8" font-family="Times New Roman,serif" font-size="14.00">1</text>
<text text-anchor="middle" x="2296.5" y="-7.8" font-family="Times New Roman,serif" font-size="14.00">TIENDA CARGADA</text>
</g>
<!-- nodo9&#45;&gt;nodo8 -->
<g id="edge7" class="edge">
<title>nodo9&#45;&gt;nodo8</title>
<path fill="none" stroke="black" d="M2296.5,-164.5C2296.5,-156.69 2296.5,-147.72 2296.5,-138.42"/>
<polygon fill="black" stroke="black" points="2300,-138.25 2296.5,-128.25 2293,-138.25 2300,-138.25"/>
</g>
<!-- nodo10 -->
<g id="node12" class="node">
<title>nodo10</title>
<polygon fill="#298eb9" stroke="black" points="2598.5,-84 2544.5,-84 2544.5,-44 2598.5,-44 2598.5,-84"/>
</g>
<!-- nodo9&#45;&gt;nodo10 -->
<g id="edge8" class="edge">
<title>nodo9&#45;&gt;nodo10</title>
<path fill="none" stroke="black" d="M2465.73,-164.43C2490.69,-155.59 2514.9,-143.78 2535.5,-128 2546.86,-119.3 2555.23,-105.91 2561.02,-93.71"/>
<polygon fill="black" stroke="black" points="2564.34,-94.86 2565.13,-84.29 2557.92,-92.06 2564.34,-94.86"/>
</g>
<!-- nodo12 -->
<g id="node14" class="node">
<title>nodo12</title>
<polygon fill="#298eb9" stroke="black" points="2748.5,-84 2694.5,-84 2694.5,-44 2748.5,-44 2748.5,-84"/>
</g>
<!-- nodo13&#45;&gt;nodo12 -->
<g id="edge9" class="edge">
<title>nodo13&#45;&gt;nodo12</title>
<path fill="none" stroke="black" d="M2749.87,-163.88C2743.98,-143.36 2735.84,-115 2729.79,-93.92"/>
<polygon fill="black" stroke="black" points="2733.13,-92.86 2727.01,-84.21 2726.4,-94.79 2733.13,-92.86"/>
</g>
<!-- nodo14 -->
<g id="node15" class="node">
<title>nodo14</title>
<polygon fill="#298eb9" stroke="black" points="2820.5,-84 2766.5,-84 2766.5,-44 2820.5,-44 2820.5,-84"/>
</g>
<!-- nodo13&#45;&gt;nodo14 -->
<g id="edge10" class="edge">
<title>nodo13&#45;&gt;nodo14</title>
<path fill="none" stroke="black" d="M2765.13,-163.88C2771.02,-143.36 2779.16,-115 2785.21,-93.92"/>
<polygon fill="black" stroke="black" points="2788.6,-94.79 2787.99,-84.21 2781.87,-92.86 2788.6,-94.79"/>
</g>
</g>
</svg>
