<?xml version="1.0" encoding="UTF-8" standalone="no"?>
<!DOCTYPE svg PUBLIC "-//W3C//DTD SVG 1.1//EN"
 "http://www.w3.org/Graphics/SVG/1.1/DTD/svg11.dtd">
<!-- Generated by graphviz version 2.46.1 (20210213.1702)
 -->
<!-- Title: grafo Pages: 1 -->
<svg width="463pt" height="45pt"
 viewBox="0.00 0.00 463.00 45.00" xmlns="http://www.w3.org/2000/svg" xmlns:xlink="http://www.w3.org/1999/xlink">
<g id="graph0" class="graph" transform="scale(1 1) rotate(0) translate(4 41)">
<title>grafo</title>
<polygon fill="white" stroke="transparent" points="-4,4 -4,-41 459,-41 459,4 -4,4"/>
<!-- Despacho -->
<g id="node1" class="node">
<title>Despacho</title>
<polygon fill="none" stroke="black" points="0,-0.5 0,-36.5 125,-36.5 125,-0.5 0,-0.5"/>
<text text-anchor="middle" x="62.5" y="-14.8" font-family="Times New Roman,serif" font-size="14.00">Lugar: Despacho19</text>
</g>
<!-- Reparaciones -->
<g id="node2" class="node">
<title>Reparaciones</title>
<polygon fill="none" stroke="black" points="161,-0.5 161,-36.5 306,-36.5 306,-0.5 161,-0.5"/>
<text text-anchor="middle" x="233.5" y="-14.8" font-family="Times New Roman,serif" font-size="14.00">Lugar: Reparaciones19</text>
</g>
<!-- Despacho&#45;&gt;Reparaciones -->
<g id="edge1" class="edge">
<title>Despacho&#45;&gt;Reparaciones</title>
<path fill="none" stroke="black" d="M125.47,-18.5C133.64,-18.5 142.11,-18.5 150.55,-18.5"/>
<polygon fill="black" stroke="black" points="150.81,-22 160.81,-18.5 150.81,-15 150.81,-22"/>
</g>
<!-- Textiles -->
<g id="node3" class="node">
<title>Textiles</title>
<polygon fill="none" stroke="black" points="342,-0.5 342,-36.5 455,-36.5 455,-0.5 342,-0.5"/>
<text text-anchor="middle" x="398.5" y="-14.8" font-family="Times New Roman,serif" font-size="14.00">Lugar: Textiles19</text>
</g>
<!-- Reparaciones&#45;&gt;Textiles -->
<g id="edge2" class="edge">
<title>Reparaciones&#45;&gt;Textiles</title>
<path fill="none" stroke="black" d="M306.47,-18.5C314.74,-18.5 323.15,-18.5 331.35,-18.5"/>
<polygon fill="black" stroke="black" points="331.58,-22 341.58,-18.5 331.58,-15 331.58,-22"/>
</g>
</g>
</svg>
