<?xml version="1.0" encoding="UTF-8" standalone="no"?>
<!DOCTYPE svg PUBLIC "-//W3C//DTD SVG 1.1//EN"
 "http://www.w3.org/Graphics/SVG/1.1/DTD/svg11.dtd">
<!-- Generated by graphviz version 2.46.1 (20210213.1702)
 -->
<!-- Title: grafo Pages: 1 -->
<svg width="474pt" height="45pt"
 viewBox="0.00 0.00 474.00 45.00" xmlns="http://www.w3.org/2000/svg" xmlns:xlink="http://www.w3.org/1999/xlink">
<g id="graph0" class="graph" transform="scale(1 1) rotate(0) translate(4 41)">
<title>grafo</title>
<polygon fill="white" stroke="transparent" points="-4,4 -4,-41 470,-41 470,4 -4,4"/>
<!-- Reparaciones -->
<g id="node1" class="node">
<title>Reparaciones</title>
<polygon fill="none" stroke="black" points="0,-0.5 0,-36.5 145,-36.5 145,-0.5 0,-0.5"/>
<text text-anchor="middle" x="72.5" y="-14.8" font-family="Times New Roman,serif" font-size="14.00">Lugar: Reparaciones11</text>
</g>
<!-- Despacho -->
<g id="node2" class="node">
<title>Despacho</title>
<polygon fill="none" stroke="black" points="181,-0.5 181,-36.5 306,-36.5 306,-0.5 181,-0.5"/>
<text text-anchor="middle" x="243.5" y="-14.8" font-family="Times New Roman,serif" font-size="14.00">Lugar: Despacho11</text>
</g>
<!-- Reparaciones&#45;&gt;Despacho -->
<g id="edge1" class="edge">
<title>Reparaciones&#45;&gt;Despacho</title>
<path fill="none" stroke="black" d="M145.17,-18.5C153.61,-18.5 162.23,-18.5 170.68,-18.5"/>
<polygon fill="black" stroke="black" points="170.87,-22 180.87,-18.5 170.87,-15 170.87,-22"/>
</g>
<!-- Aranceles -->
<g id="node3" class="node">
<title>Aranceles</title>
<polygon fill="none" stroke="black" points="342,-0.5 342,-36.5 466,-36.5 466,-0.5 342,-0.5"/>
<text text-anchor="middle" x="404" y="-14.8" font-family="Times New Roman,serif" font-size="14.00">Lugar: Aranceles11</text>
</g>
<!-- Despacho&#45;&gt;Aranceles -->
<g id="edge2" class="edge">
<title>Despacho&#45;&gt;Aranceles</title>
<path fill="none" stroke="black" d="M306.23,-18.5C314.58,-18.5 323.19,-18.5 331.68,-18.5"/>
<polygon fill="black" stroke="black" points="331.96,-22 341.96,-18.5 331.96,-15 331.96,-22"/>
</g>
</g>
</svg>
