<?xml version="1.0" encoding="UTF-8" standalone="no"?>
<!DOCTYPE svg PUBLIC "-//W3C//DTD SVG 1.1//EN"
 "http://www.w3.org/Graphics/SVG/1.1/DTD/svg11.dtd">
<!-- Generated by graphviz version 2.46.1 (20210213.1702)
 -->
<!-- Title: grafo Pages: 1 -->
<svg width="186pt" height="305pt"
 viewBox="0.00 0.00 185.79 305.00" xmlns="http://www.w3.org/2000/svg" xmlns:xlink="http://www.w3.org/1999/xlink">
<g id="graph0" class="graph" transform="scale(1 1) rotate(0) translate(4 301)">
<title>grafo</title>
<polygon fill="white" stroke="transparent" points="-4,4 -4,-301 181.79,-301 181.79,4 -4,4"/>
<!-- Node -->
<g id="node1" class="node">
<title>Node</title>
<polygon fill="none" stroke="black" points="54,-297 0,-297 0,-261 54,-261 54,-297"/>
<text text-anchor="middle" x="27" y="-275.3" font-family="Times New Roman,serif" font-size="14.00">Node</text>
</g>
<!-- Node0 -->
<g id="node2" class="node">
<title>Node0</title>
<ellipse fill="none" stroke="black" cx="119" cy="-279" rx="47.39" ry="18"/>
<text text-anchor="middle" x="119" y="-275.3" font-family="Times New Roman,serif" font-size="14.00">Despacho</text>
</g>
<!-- Node1 -->
<g id="node3" class="node">
<title>Node1</title>
<ellipse fill="none" stroke="black" cx="59" cy="-192" rx="46.29" ry="18"/>
<text text-anchor="middle" x="59" y="-188.3" font-family="Times New Roman,serif" font-size="14.00">Aranceles</text>
</g>
<!-- Node0&#45;&gt;Node1 -->
<g id="edge1" class="edge">
<title>Node0&#45;&gt;Node1</title>
<path fill="none" stroke="black" d="M96.41,-262.82C89.44,-257.25 82.23,-250.46 77,-243 72.16,-236.09 68.49,-227.74 65.76,-219.86"/>
<polygon fill="black" stroke="black" points="69.09,-218.79 62.79,-210.27 62.4,-220.86 69.09,-218.79"/>
<text text-anchor="middle" x="80.5" y="-231.8" font-family="Times New Roman,serif" font-size="14.00">5</text>
</g>
<!-- Node3 -->
<g id="node4" class="node">
<title>Node3</title>
<ellipse fill="none" stroke="black" cx="118" cy="-18" rx="59.59" ry="18"/>
<text text-anchor="middle" x="118" y="-14.3" font-family="Times New Roman,serif" font-size="14.00">Reparaciones</text>
</g>
<!-- Node0&#45;&gt;Node3 -->
<g id="edge2" class="edge">
<title>Node0&#45;&gt;Node3</title>
<path fill="none" stroke="black" d="M118.93,-260.6C118.76,-216.46 118.31,-99.83 118.11,-46.42"/>
<polygon fill="black" stroke="black" points="121.61,-46.31 118.07,-36.32 114.61,-46.33 121.61,-46.31"/>
<text text-anchor="middle" x="122.5" y="-144.8" font-family="Times New Roman,serif" font-size="14.00">6</text>
</g>
<!-- Node1&#45;&gt;Node0 -->
<g id="edge3" class="edge">
<title>Node1&#45;&gt;Node0</title>
<path fill="none" stroke="black" d="M70.99,-209.71C75.12,-215.5 79.77,-222.02 84,-228 89.75,-236.13 96,-245.03 101.6,-253.04"/>
<polygon fill="black" stroke="black" points="98.78,-255.11 107.37,-261.31 104.51,-251.1 98.78,-255.11"/>
<text text-anchor="middle" x="97.5" y="-231.8" font-family="Times New Roman,serif" font-size="14.00">5</text>
</g>
<!-- Node2 -->
<g id="node5" class="node">
<title>Node2</title>
<ellipse fill="none" stroke="black" cx="66" cy="-105" rx="38.99" ry="18"/>
<text text-anchor="middle" x="66" y="-101.3" font-family="Times New Roman,serif" font-size="14.00">Textiles</text>
</g>
<!-- Node1&#45;&gt;Node2 -->
<g id="edge4" class="edge">
<title>Node1&#45;&gt;Node2</title>
<path fill="none" stroke="black" d="M49.69,-174.34C45.42,-164.62 41.92,-152.12 45,-141 45.94,-137.62 47.3,-134.24 48.88,-130.98"/>
<polygon fill="black" stroke="black" points="51.94,-132.68 53.77,-122.24 45.83,-129.26 51.94,-132.68"/>
<text text-anchor="middle" x="52" y="-144.8" font-family="Times New Roman,serif" font-size="14.00">10</text>
</g>
<!-- Node3&#45;&gt;Node0 -->
<g id="edge7" class="edge">
<title>Node3&#45;&gt;Node0</title>
<path fill="none" stroke="black" d="M126.92,-36C129.4,-41.58 131.75,-47.91 133,-54 149.89,-136.28 148.89,-160.52 133,-243 132.47,-245.74 131.73,-248.53 130.87,-251.29"/>
<polygon fill="black" stroke="black" points="127.48,-250.35 127.33,-260.95 134.05,-252.76 127.48,-250.35"/>
<text text-anchor="middle" x="148.5" y="-144.8" font-family="Times New Roman,serif" font-size="14.00">6</text>
</g>
<!-- Node3&#45;&gt;Node2 -->
<g id="edge8" class="edge">
<title>Node3&#45;&gt;Node2</title>
<path fill="none" stroke="black" d="M107.75,-35.76C100.27,-47.97 90.02,-64.74 81.54,-78.6"/>
<polygon fill="black" stroke="black" points="78.51,-76.85 76.27,-87.21 84.48,-80.5 78.51,-76.85"/>
<text text-anchor="middle" x="99.5" y="-57.8" font-family="Times New Roman,serif" font-size="14.00">7</text>
</g>
<!-- Node2&#45;&gt;Node1 -->
<g id="edge5" class="edge">
<title>Node2&#45;&gt;Node1</title>
<path fill="none" stroke="black" d="M64.59,-123.18C63.63,-134.81 62.34,-150.42 61.25,-163.73"/>
<polygon fill="black" stroke="black" points="57.75,-163.55 60.42,-173.8 64.73,-164.12 57.75,-163.55"/>
<text text-anchor="middle" x="70" y="-144.8" font-family="Times New Roman,serif" font-size="14.00">10</text>
</g>
<!-- Node2&#45;&gt;Node3 -->
<g id="edge6" class="edge">
<title>Node2&#45;&gt;Node3</title>
<path fill="none" stroke="black" d="M67.5,-86.8C69,-76.67 72,-63.93 78,-54 80.68,-49.57 84.1,-45.41 87.81,-41.6"/>
<polygon fill="black" stroke="black" points="90.25,-44.11 95.19,-34.74 85.48,-38.98 90.25,-44.11"/>
<text text-anchor="middle" x="81.5" y="-57.8" font-family="Times New Roman,serif" font-size="14.00">7</text>
</g>
</g>
</svg>
